/* XPM */
static char *_55dcc820e0e49efeb12a2bb522e0a53[] = {
/* columns rows colors chars-per-pixel */
"16 16 40 1 ",
"  c #82B57A",
". c #9AC394",
"X c #AFCEA8",
"o c #B4C7A8",
"O c #BFCFB4",
"+ c #C0D0B4",
"@ c #C5D4BB",
"# c #C7D6BE",
"$ c #CBD8C1",
"% c #CCD9C4",
"& c #D1DDC9",
"* c #D3DECB",
"= c #D3DECC",
"- c #D4DFCD",
"; c #D6E0CF",
": c #D6E5D2",
"> c #D9E3D2",
", c #DCE5D7",
"< c #E1E8DC",
"1 c #E2E9DD",
"2 c #E4EBDF",
"3 c #E6ECE1",
"4 c #E7EDE3",
"5 c #EAEFE6",
"6 c #ECEFE7",
"7 c #E9F2E8",
"8 c #ECF0E8",
"9 c #ECF1E9",
"0 c #EFF2EC",
"q c #F0F3ED",
"w c #F1F4EF",
"e c #F2F5F0",
"r c #F4F6F2",
"t c #F5F7F3",
"y c #F7F9F6",
"u c #F8FAF7",
"i c #FBFCFB",
"p c #FCFCFB",
"a c #FDFDFD",
"s c gray100",
/* pixels */
"ssssssssssssssss",
"sssisriuiississs",
"ssis5,6>rr<rsisi",
"sssw>siissr<rsps",
"ss8*issssssi<0ss",
"is>0spssisiss>is",
"sr%ssy7psisis*<s",
"s3-ss.X66<*8s28s",
"s,;sw :=**;8s<0s",
"s8Osy8ir0riis@3s",
"siOyssssssisross",
"ss<=siissssi$7ss",
"sss>$sssss2o<sss",
"siss,>5>,-#5ssss",
"sssis88yyyssisss",
"ssssssssssississ"
};
