/* XPM */
static char *_42eed4b467f4448c97147acd0b7e1b4[] = {
/* columns rows colors chars-per-pixel */
"64 64 8 1 ",
"  c #537F35",
". c #2A811B",
"X c #2A811C",
"o c #2B811C",
"O c #538035",
"+ c #538036",
"@ c #548036",
"# c None",
/* pixels */
"################################################################",
"################################################################",
"################################################################",
"####################  ##########################################",
"##################  ############################################",
"################  #######    + #################################",
"###############  ########################  #####################",
"###########################################  ###################",
"############################################## #################",
"################ ############################## ################",
"############## ################################## ##############",
"############# #################################### #############",
"############ ###################################### ############",
"######## ## ######################################## ###########",
"######## # ########################################## ##########",
"####### # ############################################ #########",
"###### ################################################## ######",
"###### # ################################################# #####",
"####### ################################################## #####",
"###### #################################################### ####",
"###### #################################################### ####",
"##### ##################################################### ####",
"##### ###################################################### ###",
"####  #####################################################  ###",
"#### ######################################################  ###",
"###  ######################################################  ###",
"###  ##################.#################################### ###",
"###  #################..##### ########### ################## ###",
"### #################...#####+###########@### ############## ###",
"### ################.#.######+###########+### ##################",
"### ###############.##.######+##### #####+##  +#################",
"##  #############..##..X.####+###  #  ###+### +############# ###",
"##@ #############.X.##..##### ## #### ###@### ############## ###",
"##  ###############.##.###### ## ##### ##+### ############## ###",
"##  ##############....#######+## ##### ##+### ############## ###",
"##  ##############...######## ## #### ###+### ############## ###",
"##  ##############..######   ####  #  ### ### ############## ###",
"### #############..######## ####### ######################## ###",
"###  ######################################################  ###",
"###  ######################################################  ###",
"###  ######################################################  ###",
"###   ####################################################   ###",
"####  ####################################################  ####",
"####  ###################################################   ####",
"##### ###################################################   ####",
"##### ##################################################  ######",
"#####  ################################################# #######",
"###### ################################################ ########",
"####### ##############################################  ########",
"#######  ############################################  #########",
"######## ## ######################################### ##########",
"######### ## ######################################  ###########",
"########## ## ####################################  ############",
"########### ##  #################################  #############",
"############ ##  ############################## + ##############",
"############# ### ###########################    ###############",
"############## #############################   #################",
"###############  ########################    #### ##############",
"################  ####### ############     #####################",
"##################  #######    @ @   ###########################",
"###################   ##########################################",
"#####################   ########################################",
"################################################################",
"################################################################"
};
