/* XPM */
static char *_4beda501ad34db7e2cb1cc34a02f9d2[] = {
/* columns rows colors chars-per-pixel */
"32 32 3 1 ",
"  c #537F35",
". c #2A811B",
"X c None",
/* pixels */
"XXXXXXXXXXXXXXXXXXXXXXXXXXXXXXXX",
"XXXXXXXXXXXXXXXXXXXXXXXXXXXXXXXX",
"XXXXXXXXX XXXXXXXXXXXXXXXXXXXXXX",
"XXXXXXXXXXXXXXXXXXXXXXXXXXXXXXXX",
"XXXXXXXXXXXXXXXXXXXXXXXXXXXXXXXX",
"XXXXXXXXXXXXXXXXXXXXXXXXXXXXXXXX",
"XXXXXXXXXXXXXXXXXXXXXXXXXXXXXXXX",
"XXXXXXXXXXXXXXXXXXXXXXXXXXXXXXXX",
"XXXXXXXXXXXXXXXXXXXXXXXXXXXXXXXX",
"XXXXXXXXXXXXXXXXXXXXXXXXXXXXXXXX",
"XXXXXXXXXXXXXXXXXXXXXXXXXXXXXXXX",
"XX XXXXXXXXXXXXXXXXXXXXXXXXXXXXX",
"XX XXXXXXXXXXXXXXXXXXXXXXXXXXX X",
"XXXXXXXXXXX.XXXXXXXXXXXXXXXXXX X",
"X XXXXXXXX..XXXXXXXXXXXXXXXXXXXX",
"X XXXXXXX.X.XXXXXXXXXX  XXXXXXXX",
"X XXXXXXX.X.XXXXXXXXXXXXXXXXXXXX",
"X XXXXXXX..XXXXXXXXXXXXXXXXXXXXX",
"X XXXXXXX.XXXXXXXXXXXXXXXXXXXXXX",
"X XXXXXXXXXXXXXXXXXXXXXXXXXXXX X",
"XX XXXXXXXXXXXXXXXXXXXXXXXXXX XX",
"XX XXXXXXXXXXXXXXXXXXXXXXXXXX XX",
"XX XXXXXXXXXXXXXXXXXXXXXXXXX  XX",
"XXX XXXXXXXXXXXXXXXXXXXXXXXXXXXX",
"XXX XXXXXXXXXXXXXXXXXXXXXXX XXXX",
"XXXX XXXXXXXXXXXXXXXXXXXXX XXXXX",
"XXXXXXXXXXXXXXXXXXXXXXXXX XXXXXX",
"XXXXXXXXXXXXXXXXXXXXXXX  XXXXXXX",
"XXXXXXX XXXXXXXXXXXXX  XXXXXXXXX",
"XXXXXXXXXXXXXXXXXXXXXXXXXXXXXXXX",
"XXXXXXXXXX XXXXXXXXXXXXXXXXXXXXX",
"XXXXXXXXXXXXXXXXXXXXXXXXXXXXXXXX"
};
